<?xml version="1.0" standalone="no"?>
<!DOCTYPE svg PUBLIC "-//W3C//DTD SVG 20010904//EN"
 "http://www.w3.org/TR/2001/REC-SVG-20010904/DTD/svg10.dtd">
<svg version="1.0" xmlns="http://www.w3.org/2000/svg"
 width="600.000000pt" height="600.000000pt" viewBox="0 0 600.000000 600.000000"
 preserveAspectRatio="xMidYMid meet">
<metadata>
Created by potrace 1.14, written by Peter Selinger 2001-2017
</metadata>
<g transform="translate(0.000000,600.000000) scale(0.100000,-0.100000)"
fill="#000000" stroke="none">
<path d="M2413 4660 c-74 -30 -151 -281 -178 -580 -3 -30 -8 -73 -11 -95 -3
-22 -8 -53 -10 -70 -9 -70 -26 -184 -34 -230 -5 -27 -12 -72 -15 -100 -10 -88
-17 -119 -36 -157 -20 -39 -30 -44 -149 -67 -30 -6 -66 -14 -80 -17 -14 -3
-105 -21 -204 -40 -98 -19 -208 -41 -245 -50 -59 -14 -115 -25 -191 -40 -14
-3 -72 -16 -130 -29 -58 -13 -132 -27 -165 -30 -33 -3 -69 -7 -80 -10 -11 -2
-51 -7 -90 -10 -38 -4 -86 -8 -105 -10 -19 -2 -75 -7 -125 -10 -227 -14 -286
-25 -346 -64 -39 -25 -68 -49 -193 -156 -34 -30 -32 -63 10 -122 41 -56 274
-255 388 -329 153 -100 377 -208 486 -234 l45 -11 28 -92 c36 -119 92 -266
130 -342 26 -53 50 -86 147 -199 54 -62 208 -188 267 -218 111 -54 174 -31
235 87 29 56 28 157 -2 253 -12 40 -21 75 -19 77 3 2 31 -6 64 -17 34 -12 87
-21 122 -22 74 0 96 15 112 80 16 65 0 116 -69 209 -32 44 -57 81 -56 82 3 4
64 11 136 18 274 24 601 97 818 184 268 107 546 264 787 445 158 117 375 286
400 309 54 51 465 352 541 397 184 109 387 198 554 244 110 31 107 32 269 -66
146 -88 208 -120 301 -151 127 -42 263 -66 275 -47 3 5 -25 29 -62 53 -90 59
-150 118 -213 212 -47 71 -91 115 -114 115 -19 0 -19 1 3 16 18 13 22 23 17
45 -4 22 -1 29 14 34 11 4 20 10 20 15 0 15 -201 2 -301 -20 l-96 -21 -64 30
c-90 41 -193 74 -302 96 -86 18 -355 26 -450 13 -34 -4 -80 -10 -101 -13 -145
-19 -625 -179 -881 -294 -102 -46 -319 -108 -527 -152 -56 -11 -59 -11 -93 15
-77 59 -122 131 -207 329 -41 96 -120 332 -138 412 -7 28 -14 59 -16 70 -3 11
-7 74 -10 140 -3 66 -7 126 -9 133 -5 14 -21 15 -52 2z"/>
</g>
</svg>
